<svg width="230" height="230" viewBox="0 0 230 230" fill="none" xmlns="http://www.w3.org/2000/svg">
<g filter="url(#filter0_d_3109_396)">
<circle cx="114.801" cy="110.834" r="89.2392" fill="#1F26AE"/>
</g>
<g filter="url(#filter1_d_3109_396)">
<circle cx="114.801" cy="110.834" r="78.222" fill="#171C81"/>
</g>
<g filter="url(#filter2_d_3109_396)">
<circle cx="112.598" cy="110.842" r="66.1031" fill="#2128BD"/>
</g>
<path d="M62.1523 88.6753C62.1523 88.6753 72.4508 74.9076 106.024 73.6614C139.598 72.4151 141.495 63.9607 141.495 63.9607C141.495 63.9607 131.173 55.7563 112.556 55.7563C93.9378 55.7563 74.6214 65.1327 64.0184 84.8349L62.1523 88.6753Z" fill="white"/>
<path d="M143.889 65.5127C143.889 65.5127 138.397 80.6907 112.58 80.6907C86.7637 80.6907 73.8418 80.7103 61.3728 90.5711C59.2709 95.7961 57.9743 101.31 57.5275 106.925C57.5275 106.925 70.6797 94.5639 104.374 96.697C138.069 98.8302 150.952 88.4692 158.1 79.8195C158.072 79.8195 152.642 71.3495 143.889 65.5127Z" fill="white"/>
<path d="M57.5122 109.634C57.5122 109.634 71.1095 99.3625 98.8349 103.496C126.56 107.629 153.661 97.1043 159.373 81.8247C159.373 81.8247 166.505 94.1312 167.055 102.949C167.055 102.949 154.563 114.705 131.893 118.705C109.223 122.706 77.7383 110.806 59.5657 125.761C59.5657 125.761 57.5122 119.24 57.5122 109.634Z" fill="white"/>
<path d="M60.0929 127.537C60.0929 127.537 71.7773 119.371 98.8352 124.04C125.893 128.709 156.949 121.282 167.481 106.92C167.481 106.92 169.277 120.731 162.184 134.725C162.184 134.725 141.676 148.317 107.795 141.515C73.9127 134.714 68.5448 143.934 68.5448 143.934C64.7043 139.06 61.835 133.494 60.0929 127.537Z" fill="white"/>
<path d="M69.5509 145.218C69.5509 145.218 81.1416 140.874 100.001 145.609C122.308 151.211 147.367 149.965 160.687 137.639C160.687 137.639 145.97 165.928 113.06 165.928C82.3713 165.928 69.5509 145.218 69.5509 145.218Z" fill="white"/>
<defs>
<filter id="filter0_d_3109_396" x="0.562256" y="0.595215" width="228.478" height="228.479" filterUnits="userSpaceOnUse" color-interpolation-filters="sRGB">
<feFlood flood-opacity="0" result="BackgroundImageFix"/>
<feColorMatrix in="SourceAlpha" type="matrix" values="0 0 0 0 0 0 0 0 0 0 0 0 0 0 0 0 0 0 127 0" result="hardAlpha"/>
<feOffset dy="4"/>
<feGaussianBlur stdDeviation="12.5"/>
<feComposite in2="hardAlpha" operator="out"/>
<feColorMatrix type="matrix" values="0 0 0 0 1 0 0 0 0 1 0 0 0 0 1 0 0 0 0.2 0"/>
<feBlend mode="normal" in2="BackgroundImageFix" result="effect1_dropShadow_3109_396"/>
<feBlend mode="normal" in="SourceGraphic" in2="effect1_dropShadow_3109_396" result="shape"/>
</filter>
<filter id="filter1_d_3109_396" x="11.5795" y="11.6123" width="206.444" height="206.444" filterUnits="userSpaceOnUse" color-interpolation-filters="sRGB">
<feFlood flood-opacity="0" result="BackgroundImageFix"/>
<feColorMatrix in="SourceAlpha" type="matrix" values="0 0 0 0 0 0 0 0 0 0 0 0 0 0 0 0 0 0 127 0" result="hardAlpha"/>
<feOffset dy="4"/>
<feGaussianBlur stdDeviation="12.5"/>
<feComposite in2="hardAlpha" operator="out"/>
<feColorMatrix type="matrix" values="0 0 0 0 1 0 0 0 0 1 0 0 0 0 1 0 0 0 0.2 0"/>
<feBlend mode="normal" in2="BackgroundImageFix" result="effect1_dropShadow_3109_396"/>
<feBlend mode="normal" in="SourceGraphic" in2="effect1_dropShadow_3109_396" result="shape"/>
</filter>
<filter id="filter2_d_3109_396" x="21.4951" y="23.7388" width="182.206" height="182.206" filterUnits="userSpaceOnUse" color-interpolation-filters="sRGB">
<feFlood flood-opacity="0" result="BackgroundImageFix"/>
<feColorMatrix in="SourceAlpha" type="matrix" values="0 0 0 0 0 0 0 0 0 0 0 0 0 0 0 0 0 0 127 0" result="hardAlpha"/>
<feOffset dy="4"/>
<feGaussianBlur stdDeviation="12.5"/>
<feComposite in2="hardAlpha" operator="out"/>
<feColorMatrix type="matrix" values="0 0 0 0 1 0 0 0 0 1 0 0 0 0 1 0 0 0 0.2 0"/>
<feBlend mode="normal" in2="BackgroundImageFix" result="effect1_dropShadow_3109_396"/>
<feBlend mode="normal" in="SourceGraphic" in2="effect1_dropShadow_3109_396" result="shape"/>
</filter>
</defs>
</svg>
