<svg width="138" height="30" viewBox="0 0 138 30" fill="none" xmlns="http://www.w3.org/2000/svg">
<path d="M23.0381 29.1289H17.4861L10.2039 16.9095H4.85479V29.1289H0.041194L0 0.328125H10.8211C13.5912 0.328125 15.8129 1.08259 17.4861 2.59151C19.1593 4.10043 19.9959 6.10267 19.9959 8.59821C19.9959 10.2994 19.5636 11.808 18.699 13.1242C17.8345 14.4404 16.6482 15.4278 15.1403 16.0864L23.0381 29.1289ZM4.85479 4.52534V12.6718H10.1185C11.7088 12.6718 12.9362 12.3158 13.8008 11.6039C14.6653 10.8919 15.0976 9.89074 15.0976 8.6005C15.0976 7.31179 14.6653 6.31067 13.8008 5.59715C12.9362 4.88363 11.7088 4.52763 10.1185 4.52915L4.85479 4.52534Z" fill="white"/>
<path d="M43.0026 18.1841C43.0083 18.7955 42.9814 19.4067 42.9218 20.0151H27.3914C27.5794 21.7761 28.2046 23.171 29.2672 24.1999C30.3298 25.2287 31.6676 25.7419 33.2807 25.7394C34.627 25.7394 35.7432 25.4349 36.6293 24.8258C37.5154 24.2167 38.0935 23.3568 38.3638 22.2461L42.5186 23.3006C41.9806 25.278 40.8916 26.8087 39.2516 27.8928C37.6116 28.9769 35.5944 29.5187 33.1999 29.5182C30.1084 29.5182 27.6477 28.4823 25.8177 26.4105C23.9877 24.3387 23.0735 21.8532 23.075 18.9539C23.075 16.0295 23.9558 13.5379 25.7175 11.4792C27.4791 9.42048 29.9062 8.39111 32.9987 8.39111C36.1177 8.39111 38.565 9.35244 40.3406 11.2751C42.1162 13.1977 43.0036 15.5008 43.0026 18.1841ZM27.5948 16.6408H38.3234C38.1888 15.2053 37.6577 14.0541 36.7303 13.1874C35.8028 12.3208 34.559 11.8874 32.9987 11.8874C31.6001 11.8874 30.43 12.3004 29.4886 13.1264C28.5472 13.9524 27.9152 15.1239 27.5926 16.6408H27.5948Z" fill="white"/>
<path d="M50.8542 29.1297L43.2837 8.3916H47.8509L52.994 23.9027L58.1372 8.3916H62.7448L55.1743 29.1297H50.8542Z" fill="white"/>
<path d="M87.3464 29.1295V0H91.8312V29.1295H87.3464Z" fill="white"/>
<path d="M114.915 8.3916V29.1297H110.431V25.674C109.728 26.8149 108.752 27.7623 107.591 28.4302C106.412 29.1168 105.095 29.4598 103.641 29.4593C101.392 29.4593 99.5752 28.7804 98.1898 27.4225C96.8045 26.0646 96.1118 24.275 96.1118 22.0535V8.3916H100.597V21.0244C100.597 22.3411 100.981 23.404 101.749 24.2132C102.518 25.0223 103.56 25.4269 104.877 25.4269C106.606 25.4269 107.964 24.7276 108.951 23.329C109.937 21.9305 110.431 19.9829 110.432 17.4863V8.3916H114.915Z" fill="white"/>
<path d="M138 8.3916V29.1297H133.515V25.674C132.813 26.8148 131.838 27.7622 130.677 28.4302C129.497 29.1168 128.181 29.4598 126.727 29.4593C124.478 29.4593 122.661 28.7804 121.275 27.4225C119.89 26.0646 119.197 24.275 119.198 22.0535V8.3916H123.682V21.0244C123.682 22.3411 124.066 23.404 124.835 24.2132C125.603 25.0223 126.646 25.4269 127.962 25.4269C129.692 25.4269 131.049 24.7276 132.035 23.329C133.021 21.9305 133.515 19.9829 133.517 17.4863V8.3916H138Z" fill="white"/>
<path d="M63.8936 14.6729C63.8936 14.6729 65.8602 12.0457 72.2717 11.8078C78.6832 11.57 79.0455 9.95671 79.0455 9.95671C79.0455 9.95671 77.0744 8.39111 73.519 8.39111C69.9636 8.39111 66.2748 10.1804 64.2499 13.94L63.8936 14.6729Z" fill="white"/>
<path d="M79.5027 10.2529C79.5027 10.2529 78.4537 13.1493 73.5236 13.1493C68.5935 13.1493 66.1258 13.153 63.7446 15.0347C63.3432 16.0318 63.0956 17.084 63.0103 18.1555C63.0103 18.1555 65.5219 15.7966 71.9565 16.2037C78.3911 16.6107 80.8513 14.6336 82.2164 12.983C82.2112 12.983 81.1741 11.3667 79.5027 10.2529Z" fill="white"/>
<path d="M63.0073 18.6723C63.0073 18.6723 65.604 16.7124 70.8987 17.5011C76.1934 18.2899 81.3688 16.2815 82.4595 13.3657C82.4595 13.3657 83.8215 15.7141 83.9267 17.3968C83.9267 17.3968 81.541 19.64 77.2118 20.4034C72.8825 21.1669 66.8699 18.896 63.3995 21.7499C63.3995 21.7499 63.0073 20.5056 63.0073 18.6723Z" fill="white"/>
<path d="M63.5002 22.0889C63.5002 22.0889 65.7316 20.5308 70.8988 21.4217C76.066 22.3126 81.9966 20.8953 84.0081 18.1548C84.0081 18.1548 84.351 20.7902 82.9964 23.4607C82.9964 23.4607 79.0802 26.0543 72.6098 24.7564C66.1394 23.4584 65.1143 25.2179 65.1143 25.2179C64.3809 24.2878 63.8329 23.2256 63.5002 22.0889Z" fill="white"/>
<path d="M65.3062 25.4624C65.3062 25.4624 67.5196 24.6334 71.1212 25.537C75.3811 26.6061 80.1666 26.3682 82.7104 24.0161C82.7104 24.0161 79.8997 29.4144 73.615 29.4144C67.7544 29.4144 65.3062 25.4624 65.3062 25.4624Z" fill="white"/>
</svg>
